<svg xmlns="http://www.w3.org/2000/svg" viewBox="0 0 261.64 112.9"><defs><style>.cls-1{fill:#fff;}.cls-2{fill:#f65151;}</style></defs><title>Asset 3</title><g id="Layer_2" data-name="Layer 2"><g id="Calque_2" data-name="Calque 2"><path class="cls-1" d="M115,13.05a6.83,6.83,0,0,0-.83-3.47,2.74,2.74,0,0,0-2.54-1.43,3.22,3.22,0,0,0-2.8,1.24,4.67,4.67,0,0,0-.89,2.77,4.56,4.56,0,0,0,1.43,3.53A13.37,13.37,0,0,0,112.92,18c1.45.63,3,1.28,4.65,1.94a20.46,20.46,0,0,1,4.64,2.57,12.73,12.73,0,0,1,3.59,4.17,13.8,13.8,0,0,1,1.43,6.71q0,7.24-4.13,10.53t-12,3.27a31.58,31.58,0,0,1-6.51-.6,11.57,11.57,0,0,1-4.77-2.1,9.54,9.54,0,0,1-3-3.91,15.44,15.44,0,0,1-1-6V33h11.44V34c0,2,.36,3.32,1.08,4.1a3.6,3.6,0,0,0,2.8,1.18A3.36,3.36,0,0,0,114,38.05a5,5,0,0,0,1-3.12,4.66,4.66,0,0,0-1.36-3.53,12.24,12.24,0,0,0-3.44-2.23c-1.38-.61-2.87-1.24-4.48-1.87a20,20,0,0,1-4.48-2.48,12.24,12.24,0,0,1-3.43-4,13.33,13.33,0,0,1-1.37-6.49q0-6.93,3.69-10.56T111.34.13q7.75,0,11.22,3.34T126,14.13H115Z"/><path class="cls-1" d="M128.63,11.08V1h29.5V11.08h-8.9V46.44H137.4V11.08Z"/><path class="cls-1" d="M160.29,12.89A19.31,19.31,0,0,1,163,5.57a11.18,11.18,0,0,1,5-4.13,22.88,22.88,0,0,1,15.26,0,11.2,11.2,0,0,1,5,4.13,19.31,19.31,0,0,1,2.73,7.32,60.89,60.89,0,0,1,.83,10.84,60.94,60.94,0,0,1-.83,10.85,19.19,19.19,0,0,1-2.73,7.31,10.52,10.52,0,0,1-5,4,24.66,24.66,0,0,1-15.26,0,10.5,10.5,0,0,1-5-4,19.19,19.19,0,0,1-2.73-7.31,60.94,60.94,0,0,1-.83-10.85A60.89,60.89,0,0,1,160.29,12.89ZM171.8,31.34a26.43,26.43,0,0,0,.54,4.8,4.63,4.63,0,0,0,1.2,2.48,3.59,3.59,0,0,0,4.26,0A4.63,4.63,0,0,0,179,36.14a26.43,26.43,0,0,0,.54-4.8c.09-2,.13-4.55.13-7.61s0-5.58-.13-7.6a26.43,26.43,0,0,0-.54-4.8,4.63,4.63,0,0,0-1.21-2.48,3.59,3.59,0,0,0-4.26,0,4.63,4.63,0,0,0-1.2,2.48,26.43,26.43,0,0,0-.54,4.8q-.13,3-.13,7.6C171.67,26.79,171.71,29.32,171.8,31.34Z"/><path class="cls-1" d="M209.37,1,217,29h.13V1h11.06V46.44h-13l-7.88-28h-.13V46.44H196.15V1Z"/><path class="cls-1" d="M260.68,1v9.66H245.61v7.76h14.11v9.29H245.61v9h15.64v9.67H233.78V1Z"/><rect class="cls-2" x="95.81" y="52.62" width="165.54" height="7.33"/><path class="cls-2" d="M48.23,25.48h0c.34.1.68.24,1,.36a18.16,18.16,0,0,1,7.65,5.09C57.67,15,44.57,1.37,43.31.1l-.1-.1L10.64,32.59C19.15,26.07,32.29,20,48.23,25.48"/><path class="cls-2" d="M61,48.25l-.35,1a18.22,18.22,0,0,1-5.09,7.66c15.91.77,29.53-12.33,30.81-13.59l.1-.1L53.86,10.65c6.51,8.52,12.63,21.65,7.1,37.6"/><path class="cls-2" d="M25.47,38.23h0c.1-.35.24-.68.36-1a18.33,18.33,0,0,1,5.08-7.66C15,28.78,1.36,41.89.1,43.14l-.1.1L32.58,75.83c-6.52-8.51-12.64-21.65-7.11-37.6"/><path class="cls-2" d="M38.21,61h0c-.35-.09-.68-.23-1-.35a18.32,18.32,0,0,1-7.66-5.09c-.77,15.92,12.33,29.56,13.59,30.83l.09.09L75.79,53.89C67.27,60.41,54.14,66.52,38.21,61"/><path class="cls-1" d="M43.22,28.9S33.66,42.74,33.66,48a9.56,9.56,0,1,0,19.11,0c0-5.28-9.55-19.12-9.55-19.12M38.59,53.15c-3.31-4.36-1.42-9-1.1-10.68a2,2,0,0,1,0-.26c0,.08,0,.16,0,.26a12.37,12.37,0,0,0,4.4,10c2.56,2-.71,4-3.3.73"/><path class="cls-1" d="M96.23,71.29a8.74,8.74,0,0,1,1.21-3.24,5,5,0,0,1,2.22-1.83,8.88,8.88,0,0,1,3.38-.57,8.79,8.79,0,0,1,3.37.57,5,5,0,0,1,2.23,1.83,8.74,8.74,0,0,1,1.21,3.24,32.18,32.18,0,0,1,0,9.6,8.62,8.62,0,0,1-1.21,3.23,4.7,4.7,0,0,1-2.23,1.79,9.46,9.46,0,0,1-3.37.53,9.55,9.55,0,0,1-3.38-.53,4.63,4.63,0,0,1-2.22-1.79,8.62,8.62,0,0,1-1.21-3.23,32.18,32.18,0,0,1,0-9.6Zm5.09,8.16a12.35,12.35,0,0,0,.24,2.12,2,2,0,0,0,.54,1.1A1.33,1.33,0,0,0,103,83a1.35,1.35,0,0,0,.94-.31,2.05,2.05,0,0,0,.54-1.1,11.55,11.55,0,0,0,.23-2.12q.06-1.33.06-3.36c0-1.35,0-2.47-.06-3.37a11.66,11.66,0,0,0-.23-2.12,2.09,2.09,0,0,0-.54-1.1,1.4,1.4,0,0,0-.94-.31,1.38,1.38,0,0,0-.94.31,2,2,0,0,0-.54,1.1,12.48,12.48,0,0,0-.24,2.12c0,.9,0,2,0,3.37S101.29,78.56,101.32,79.45Z"/><path class="cls-1" d="M123.74,66V86.13h-5.23V66Z"/><path class="cls-1" d="M137.86,66V81.86h6.44v4.27H132.63V66Z"/><path class="cls-1" d="M176.93,86.13,176.05,85c-.37.23-.74.43-1.09.62a7.69,7.69,0,0,1-1.11.47,9.21,9.21,0,0,1-1.23.29,7.91,7.91,0,0,1-1.43.11,8.72,8.72,0,0,1-2.38-.32,5.49,5.49,0,0,1-1.95-1,4.79,4.79,0,0,1-1.34-1.75,5.79,5.79,0,0,1-.49-2.49,6.22,6.22,0,0,1,.91-3.28,7.17,7.17,0,0,1,2.86-2.54,15.48,15.48,0,0,1-1.34-2.21,5.31,5.31,0,0,1-.57-2.35,4.37,4.37,0,0,1,.4-1.9,4.27,4.27,0,0,1,1.16-1.48,5.42,5.42,0,0,1,1.78-1,7.74,7.74,0,0,1,2.34-.33,7.89,7.89,0,0,1,2.37.33,5.33,5.33,0,0,1,1.8,1,4.27,4.27,0,0,1,1.16,1.48,4.37,4.37,0,0,1,.41,1.9,4.88,4.88,0,0,1-.9,2.77,9.11,9.11,0,0,1-2.59,2.38l2.28,3.06a3.93,3.93,0,0,0,.46-1.11,8.36,8.36,0,0,0,.21-1.25h4.39a11.91,11.91,0,0,1-.62,3.26,7,7,0,0,1-1.74,2.76l2.7,3.77Zm-6.7-6.82a2.16,2.16,0,0,0-.31,1,2.11,2.11,0,0,0,.19.9,2.29,2.29,0,0,0,.49.73,2,2,0,0,0,.69.48,2,2,0,0,0,.8.17,2.4,2.4,0,0,0,.94-.21,3.13,3.13,0,0,0,.8-.47l-2.67-3.63A3.55,3.55,0,0,0,170.23,79.31Zm1.18-8.15a11.89,11.89,0,0,0,1,1.47,7.51,7.51,0,0,0,1.29-1.44,2.08,2.08,0,0,0,.37-1,1.29,1.29,0,0,0-.43-1,1.62,1.62,0,0,0-2.13,0,1.33,1.33,0,0,0-.43,1A2.2,2.2,0,0,0,171.41,71.16Z"/><path class="cls-1" d="M217.4,75.21V86.13h-3.54l-.12-1.77h-.05a2.81,2.81,0,0,1-.72,1.07,3.19,3.19,0,0,1-1,.63,5.92,5.92,0,0,1-1.24.3,11.73,11.73,0,0,1-1.33.08,6.34,6.34,0,0,1-3.15-.66,4.2,4.2,0,0,1-1.75-2,10,10,0,0,1-.74-3.27c-.11-1.29-.16-2.77-.16-4.44a29.71,29.71,0,0,1,.3-4.48A8.42,8.42,0,0,1,205,68.35a5.39,5.39,0,0,1,2.29-2,8.91,8.91,0,0,1,3.77-.69,8.64,8.64,0,0,1,2.55.36,5.08,5.08,0,0,1,2,1.18,5.71,5.71,0,0,1,1.32,2.1,8.92,8.92,0,0,1,.48,3.11h-5.06a7.18,7.18,0,0,0-.28-2.33,1.16,1.16,0,0,0-1.21-.88,1.62,1.62,0,0,0-1,.31,2,2,0,0,0-.56,1.1,12.48,12.48,0,0,0-.24,2.12c0,.9-.06,2-.06,3.37s0,2.47.06,3.36a12.35,12.35,0,0,0,.24,2.12,2.05,2.05,0,0,0,.53,1.1,1.37,1.37,0,0,0,.94.31,1.51,1.51,0,0,0,.75-.17,1.29,1.29,0,0,0,.55-.63,4.53,4.53,0,0,0,.35-1.29,15.32,15.32,0,0,0,.13-2.13h-1.86V75.21Z"/><path class="cls-1" d="M236,66l4.89,20.09h-5.56l-.54-3.51h-4.16l-.54,3.51h-5.48L229.44,66Zm-3.32,4.11-1.43,8.53h2.92l-1.43-8.53Z"/><path class="cls-1" d="M256.22,71.36a3,3,0,0,0-.37-1.53,1.2,1.2,0,0,0-1.13-.64,1.42,1.42,0,0,0-1.23.55,2,2,0,0,0-.4,1.23,2,2,0,0,0,.64,1.56,6.1,6.1,0,0,0,1.59,1c.63.28,1.32.56,2.05.85a10,10,0,0,1,2.05,1.14A5.64,5.64,0,0,1,261,77.37a6.12,6.12,0,0,1,.63,3q0,3.21-1.82,4.65a8.35,8.35,0,0,1-5.29,1.45,14.62,14.62,0,0,1-2.89-.26,5.29,5.29,0,0,1-2.11-.93,4.2,4.2,0,0,1-1.3-1.73,6.89,6.89,0,0,1-.45-2.65v-.7h5.06v.48a2.67,2.67,0,0,0,.48,1.81,1.59,1.59,0,0,0,1.24.52,1.5,1.5,0,0,0,1.25-.56,2.2,2.2,0,0,0,.43-1.38,2,2,0,0,0-.6-1.56,5.33,5.33,0,0,0-1.52-1c-.61-.27-1.27-.55-2-.83a8.54,8.54,0,0,1-2-1.09,5.38,5.38,0,0,1-1.51-1.78,5.85,5.85,0,0,1-.61-2.87,6.26,6.26,0,0,1,1.63-4.67,6.81,6.81,0,0,1,5-1.6c2.29,0,3.94.49,5,1.47s1.53,2.56,1.53,4.72h-4.89Z"/><path class="cls-1" d="M100.32,102.47a5.4,5.4,0,0,1,1.87.31,4,4,0,0,1,1.5,1,4.28,4.28,0,0,1,1,1.57,6.45,6.45,0,0,1,.35,2.21,6.75,6.75,0,0,1-.29,2.06,4.5,4.5,0,0,1-.88,1.63,4,4,0,0,1-1.47,1.08,5.11,5.11,0,0,1-2.08.39H95.83v-10.2Zm-.16,8.32a3.12,3.12,0,0,0,1-.16,2.08,2.08,0,0,0,.83-.52,2.57,2.57,0,0,0,.59-1,4.27,4.27,0,0,0,.21-1.43,6,6,0,0,0-.15-1.4,2.81,2.81,0,0,0-.5-1.06,2.17,2.17,0,0,0-.93-.68,3.66,3.66,0,0,0-1.42-.24H98.12v6.44Z"/><path class="cls-1" d="M106.83,104.14v-1.67h2.07v1.67Zm2.07,1.14v7.39h-2.07v-7.39Z"/><path class="cls-1" d="M112.77,112.67l-2.58-7.39h2.17l1.59,5h0l1.58-5h2.06l-2.55,7.39Z"/><path class="cls-1" d="M118.9,104.14v-1.67H121v1.67Zm2.07,1.14v7.39H118.9v-7.39Z"/><path class="cls-1" d="M124.71,110.84a1.27,1.27,0,0,0,.35.38,1.46,1.46,0,0,0,.51.22,2.27,2.27,0,0,0,.59.08,2.58,2.58,0,0,0,.46,0,1.82,1.82,0,0,0,.43-.16,1,1,0,0,0,.33-.29.73.73,0,0,0,.13-.45c0-.3-.2-.53-.62-.68a11.27,11.27,0,0,0-1.72-.46c-.3-.07-.6-.15-.89-.24a3.32,3.32,0,0,1-.76-.35,1.92,1.92,0,0,1-.54-.56,1.54,1.54,0,0,1-.2-.82,2.22,2.22,0,0,1,.28-1.18,2.16,2.16,0,0,1,.75-.72,3.44,3.44,0,0,1,1-.37,6.78,6.78,0,0,1,1.2-.11,5.76,5.76,0,0,1,1.18.12,3,3,0,0,1,1,.38,2.49,2.49,0,0,1,.75.73,2.36,2.36,0,0,1,.36,1.13h-2a.89.89,0,0,0-.45-.79,2.06,2.06,0,0,0-1-.21l-.38,0a1.34,1.34,0,0,0-.37.1.66.66,0,0,0-.29.2.54.54,0,0,0-.11.37.53.53,0,0,0,.2.44,1.48,1.48,0,0,0,.53.28,5.84,5.84,0,0,0,.75.19l.86.19c.3.07.6.15.88.24a3.07,3.07,0,0,1,.77.38,1.91,1.91,0,0,1,.54.59,1.74,1.74,0,0,1,.2.86,2.3,2.3,0,0,1-.3,1.22,2.39,2.39,0,0,1-.78.8,3.15,3.15,0,0,1-1.1.42,6.56,6.56,0,0,1-1.26.12,6.11,6.11,0,0,1-1.28-.13,3.22,3.22,0,0,1-1.11-.43,2.45,2.45,0,0,1-.81-.79,2.55,2.55,0,0,1-.34-1.24h2A1.15,1.15,0,0,0,124.71,110.84Z"/><path class="cls-1" d="M131.21,104.14v-1.67h2.07v1.67Zm2.07,1.14v7.39h-2.07v-7.39Z"/><path class="cls-1" d="M135.32,107.38a3.57,3.57,0,0,1,.79-1.23,3.62,3.62,0,0,1,1.22-.79,4.77,4.77,0,0,1,3.22,0,3.43,3.43,0,0,1,2,2,4.57,4.57,0,0,1,.27,1.61,4.51,4.51,0,0,1-.27,1.6,3.62,3.62,0,0,1-.79,1.22,3.4,3.4,0,0,1-1.23.78,4.94,4.94,0,0,1-3.22,0,3.45,3.45,0,0,1-1.22-.78,3.62,3.62,0,0,1-.79-1.22,4.51,4.51,0,0,1-.27-1.6A4.57,4.57,0,0,1,135.32,107.38Zm1.88,2.47a2.42,2.42,0,0,0,.3.76,1.58,1.58,0,0,0,.56.53,2,2,0,0,0,1.76,0,1.53,1.53,0,0,0,.57-.53,2.42,2.42,0,0,0,.3-.76,4.91,4.91,0,0,0,.08-.86,5.14,5.14,0,0,0-.08-.88,2.27,2.27,0,0,0-.3-.75,1.64,1.64,0,0,0-.57-.54,1.72,1.72,0,0,0-2.32.54,2.27,2.27,0,0,0-.3.75,4.3,4.3,0,0,0-.08.88A4.11,4.11,0,0,0,137.2,109.85Z"/><path class="cls-1" d="M146.52,105.28v1h0a2.28,2.28,0,0,1,1-.93,2.93,2.93,0,0,1,1.28-.3,3.47,3.47,0,0,1,1.36.23,1.91,1.91,0,0,1,.84.61,2.23,2.23,0,0,1,.43,1,5.93,5.93,0,0,1,.13,1.25v4.54h-2.07V108.5a2.53,2.53,0,0,0-.3-1.37,1.12,1.12,0,0,0-1-.45,1.44,1.44,0,0,0-1.22.5,2.65,2.65,0,0,0-.38,1.62v3.87h-2.07v-7.39Z"/><path class="cls-1" d="M158,107.38a3.57,3.57,0,0,1,.79-1.23,3.62,3.62,0,0,1,1.22-.79,4.77,4.77,0,0,1,3.22,0,3.57,3.57,0,0,1,1.23.79,3.4,3.4,0,0,1,.78,1.23,4.35,4.35,0,0,1,.28,1.61,4.3,4.3,0,0,1-.28,1.6,3.45,3.45,0,0,1-.78,1.22,3.4,3.4,0,0,1-1.23.78,4.94,4.94,0,0,1-3.22,0,3.45,3.45,0,0,1-1.22-.78,3.62,3.62,0,0,1-.79-1.22,4.51,4.51,0,0,1-.27-1.6A4.57,4.57,0,0,1,158,107.38Zm1.88,2.47a2.42,2.42,0,0,0,.3.76,1.58,1.58,0,0,0,.56.53,1.69,1.69,0,0,0,.88.2,1.71,1.71,0,0,0,.88-.2,1.53,1.53,0,0,0,.57-.53,2.18,2.18,0,0,0,.29-.76,4.12,4.12,0,0,0,.09-.86,4.31,4.31,0,0,0-.09-.88,2.06,2.06,0,0,0-.29-.75,1.64,1.64,0,0,0-.57-.54,1.71,1.71,0,0,0-.88-.21,1.6,1.6,0,0,0-1.44.75,2.27,2.27,0,0,0-.3.75,4.31,4.31,0,0,0-.09.88A4.12,4.12,0,0,0,159.89,109.85Z"/><path class="cls-1" d="M166.45,106.64v-1.36h1.24v-.57a2.2,2.2,0,0,1,.62-1.61,2.58,2.58,0,0,1,1.9-.63l.55,0,.54,0V104a6.12,6.12,0,0,0-.76,0,.79.79,0,0,0-.6.19,1,1,0,0,0-.18.65v.44h1.43v1.36h-1.43v6h-2.07v-6Z"/><path class="cls-1" d="M179.36,102.47l4.34,6.84h0v-6.84h2.15v10.2h-2.29l-4.33-6.83h0v6.83h-2.14v-10.2Z"/><path class="cls-1" d="M188.07,107.38a3.43,3.43,0,0,1,2-2,4.47,4.47,0,0,1,1.6-.28,4.57,4.57,0,0,1,1.61.28,3.43,3.43,0,0,1,2,2,4.57,4.57,0,0,1,.27,1.61,4.51,4.51,0,0,1-.27,1.6,3.62,3.62,0,0,1-.79,1.22,3.4,3.4,0,0,1-1.23.78,4.57,4.57,0,0,1-1.61.27,4.47,4.47,0,0,1-1.6-.27,3.4,3.4,0,0,1-1.23-.78,3.62,3.62,0,0,1-.79-1.22,4.51,4.51,0,0,1-.27-1.6A4.57,4.57,0,0,1,188.07,107.38Zm1.89,2.47a2.18,2.18,0,0,0,.29.76,1.58,1.58,0,0,0,.56.53,2,2,0,0,0,1.76,0,1.53,1.53,0,0,0,.57-.53,2.42,2.42,0,0,0,.3-.76,4.11,4.11,0,0,0,.08-.86,4.3,4.3,0,0,0-.08-.88,2.27,2.27,0,0,0-.3-.75,1.64,1.64,0,0,0-.57-.54,1.72,1.72,0,0,0-2.32.54,2.06,2.06,0,0,0-.29.75,4.31,4.31,0,0,0-.09.88A4.12,4.12,0,0,0,190,109.85Z"/><path class="cls-1" d="M199.27,105.28v1.38h0a2.25,2.25,0,0,1,.39-.64,2.28,2.28,0,0,1,.57-.5,2.69,2.69,0,0,1,1.44-.44,1.53,1.53,0,0,1,.45.08V107l-.35-.05-.39,0a2.13,2.13,0,0,0-1,.19,1.61,1.61,0,0,0-.64.5,2.14,2.14,0,0,0-.34.75,4,4,0,0,0-.1.93v3.33H197.3v-7.39Z"/><path class="cls-1" d="M208.42,111.73a2.12,2.12,0,0,1-1,.87,3.29,3.29,0,0,1-1.33.26,3.37,3.37,0,0,1-1.49-.32,3.08,3.08,0,0,1-1-.87,3.87,3.87,0,0,1-.63-1.27,5.26,5.26,0,0,1-.21-1.49,4.9,4.9,0,0,1,.21-1.43,3.63,3.63,0,0,1,.63-1.22,2.89,2.89,0,0,1,1-.85,3.21,3.21,0,0,1,2.73,0,2.32,2.32,0,0,1,1,.82h0v-3.71h2.06v10.2h-2v-.94Zm-.09-3.65a2.13,2.13,0,0,0-.3-.74,1.51,1.51,0,0,0-1.39-.73,1.74,1.74,0,0,0-.86.2,1.67,1.67,0,0,0-.56.53,2.52,2.52,0,0,0-.31.75,4.24,4.24,0,0,0-.09.88,3.61,3.61,0,0,0,.1.86,2.28,2.28,0,0,0,.33.76,1.76,1.76,0,0,0,.57.55,1.54,1.54,0,0,0,.82.2,1.6,1.6,0,0,0,.85-.2,1.55,1.55,0,0,0,.55-.53,2.37,2.37,0,0,0,.29-.77,4.24,4.24,0,0,0,.09-.88A4.17,4.17,0,0,0,208.33,108.08Z"/><path class="cls-1" d="M212.25,107.56a2.27,2.27,0,0,1,.37-1.19,2.46,2.46,0,0,1,.81-.76,3.54,3.54,0,0,1,1.12-.4,5.74,5.74,0,0,1,1.24-.13,9,9,0,0,1,1.15.08,3.6,3.6,0,0,1,1.07.31,2,2,0,0,1,.78.64,1.7,1.7,0,0,1,.31,1.07V111a7.5,7.5,0,0,0,.06,1,1.84,1.84,0,0,0,.2.68h-2.1a2,2,0,0,1-.09-.35,2.23,2.23,0,0,1,0-.36,2.7,2.7,0,0,1-1.17.7,4.83,4.83,0,0,1-1.37.2,3.56,3.56,0,0,1-1-.13,2.24,2.24,0,0,1-.82-.4,2,2,0,0,1-.55-.69,2.26,2.26,0,0,1-.19-1,2.14,2.14,0,0,1,.22-1,1.85,1.85,0,0,1,.59-.65,2.6,2.6,0,0,1,.81-.36c.31-.08.62-.15.93-.2l.92-.11a5.57,5.57,0,0,0,.8-.13,1.41,1.41,0,0,0,.55-.25.54.54,0,0,0,.19-.48,1.09,1.09,0,0,0-.11-.52.76.76,0,0,0-.29-.3,1.1,1.1,0,0,0-.42-.14,2.89,2.89,0,0,0-.52,0,1.59,1.59,0,0,0-1,.26,1.16,1.16,0,0,0-.41.86Zm4.78,1.5a1.29,1.29,0,0,1-.33.18l-.42.1a3.54,3.54,0,0,1-.47.07l-.5.08a3.84,3.84,0,0,0-.46.11,1.42,1.42,0,0,0-.39.19,1,1,0,0,0-.27.31.94.94,0,0,0-.1.47.92.92,0,0,0,.1.46.78.78,0,0,0,.28.29,1.19,1.19,0,0,0,.4.15,2.61,2.61,0,0,0,.48,0,1.89,1.89,0,0,0,1-.2,1.45,1.45,0,0,0,.5-.48,1.6,1.6,0,0,0,.19-.57,2.93,2.93,0,0,0,0-.45Z"/><path class="cls-1" d="M227.45,110.16a1.66,1.66,0,0,0,.5.58,2.38,2.38,0,0,0,.74.33,3.57,3.57,0,0,0,.87.1,3.81,3.81,0,0,0,.66,0,2,2,0,0,0,.65-.19,1.44,1.44,0,0,0,.51-.39,1,1,0,0,0,.21-.64.87.87,0,0,0-.27-.67,2.13,2.13,0,0,0-.71-.43,8.41,8.41,0,0,0-1-.3c-.37-.09-.74-.18-1.12-.29a8.84,8.84,0,0,1-1.14-.35,3.61,3.61,0,0,1-1-.53,2.67,2.67,0,0,1-.71-.82,2.47,2.47,0,0,1-.26-1.2,2.59,2.59,0,0,1,.34-1.36,3.06,3.06,0,0,1,.89-1,4,4,0,0,1,1.26-.57,5.54,5.54,0,0,1,1.4-.18,6.66,6.66,0,0,1,1.56.17,4.16,4.16,0,0,1,1.34.58,2.88,2.88,0,0,1,1.26,2.53h-2.21a1.89,1.89,0,0,0-.2-.76,1.33,1.33,0,0,0-.44-.47A2.12,2.12,0,0,0,230,104a3.71,3.71,0,0,0-.78-.07,2.57,2.57,0,0,0-.55.06,1.28,1.28,0,0,0-.5.2,1.13,1.13,0,0,0-.37.35,1,1,0,0,0-.15.55.85.85,0,0,0,.12.48,1,1,0,0,0,.46.35,5.71,5.71,0,0,0,.94.31l1.58.4q.3.06.81.21a3.83,3.83,0,0,1,1,.48,3.07,3.07,0,0,1,.88.88,2.41,2.41,0,0,1,.37,1.4,3.12,3.12,0,0,1-.27,1.3,2.86,2.86,0,0,1-.83,1,3.89,3.89,0,0,1-1.35.68,6.63,6.63,0,0,1-1.87.24,7.07,7.07,0,0,1-1.67-.2,4.35,4.35,0,0,1-1.43-.65,3.33,3.33,0,0,1-1-1.13,3.24,3.24,0,0,1-.35-1.63h2.21A1.8,1.8,0,0,0,227.45,110.16Z"/><path class="cls-1" d="M239.44,105.28v1.36h-1.51v3.66a1,1,0,0,0,.17.69,1.06,1.06,0,0,0,.7.17l.34,0a1.54,1.54,0,0,0,.3,0v1.57a4.71,4.71,0,0,1-.58.06l-.63,0a6.59,6.59,0,0,1-.91-.07,2.27,2.27,0,0,1-.76-.25,1.3,1.3,0,0,1-.51-.53,1.82,1.82,0,0,1-.19-.9v-4.36H234.6v-1.36h1.26v-2.21h2.07v2.21Z"/><path class="cls-1" d="M243,110.9a1.85,1.85,0,0,0,1.34.44,1.9,1.9,0,0,0,1.08-.3,1.33,1.33,0,0,0,.56-.65h1.82a3.41,3.41,0,0,1-1.34,1.9,4,4,0,0,1-2.19.57,4.26,4.26,0,0,1-1.6-.28,3.26,3.26,0,0,1-1.21-.79,3.61,3.61,0,0,1-.77-1.23,4.42,4.42,0,0,1-.27-1.57,4.36,4.36,0,0,1,.28-1.55,3.51,3.51,0,0,1,.79-1.23,3.68,3.68,0,0,1,1.21-.83,4,4,0,0,1,1.57-.3,3.71,3.71,0,0,1,1.68.37,3.38,3.38,0,0,1,1.17,1,3.77,3.77,0,0,1,.66,1.4,5,5,0,0,1,.15,1.64H242.5A2,2,0,0,0,243,110.9Zm2.34-3.89a1.49,1.49,0,0,0-1.13-.4,1.81,1.81,0,0,0-.82.17,1.68,1.68,0,0,0-.53.4,1.53,1.53,0,0,0-.27.52,1.94,1.94,0,0,0-.1.49h3.37A2.35,2.35,0,0,0,245.35,107Z"/><path class="cls-1" d="M251.65,102.47v10.2h-2.07v-10.2Z"/><path class="cls-1" d="M253.69,107.38a3.43,3.43,0,0,1,2-2,4.47,4.47,0,0,1,1.6-.28,4.57,4.57,0,0,1,1.61.28,3.43,3.43,0,0,1,2,2,4.57,4.57,0,0,1,.27,1.61,4.51,4.51,0,0,1-.27,1.6,3.62,3.62,0,0,1-.79,1.22,3.4,3.4,0,0,1-1.23.78,4.57,4.57,0,0,1-1.61.27,4.47,4.47,0,0,1-1.6-.27,3.4,3.4,0,0,1-1.23-.78,3.62,3.62,0,0,1-.79-1.22,4.51,4.51,0,0,1-.27-1.6A4.57,4.57,0,0,1,253.69,107.38Zm1.88,2.47a2.42,2.42,0,0,0,.3.76,1.58,1.58,0,0,0,.56.53,2,2,0,0,0,1.76,0,1.53,1.53,0,0,0,.57-.53,2.42,2.42,0,0,0,.3-.76,4.11,4.11,0,0,0,.08-.86,4.3,4.3,0,0,0-.08-.88,2.27,2.27,0,0,0-.3-.75,1.64,1.64,0,0,0-.57-.54,1.72,1.72,0,0,0-2.32.54,2.27,2.27,0,0,0-.3.75,5.14,5.14,0,0,0-.08.88A4.91,4.91,0,0,0,255.57,109.85Z"/></g></g></svg>