<svg xmlns="http://www.w3.org/2000/svg" viewBox="0 0 190.56 68.9"><defs><style>.cls-1{fill:#fff;}</style></defs><title>Asset 2</title><g id="Layer_2" data-name="Layer 2"><g id="Calque_2" data-name="Calque 2"><path class="cls-1" d="M63.6,10.34v19H57.39V.43h8l9.5,19.94V.43h6.21V29.37h-8Z"/><path class="cls-1" d="M108.49,20.94c0,4.39-3,8.86-11.2,8.86s-11.2-4.47-11.2-8.86V8.86c0-4.39,3-8.86,11.2-8.86s11.2,4.47,11.2,8.86ZM102,9.43c0-2.26-1.43-3.65-4.69-3.65S92.6,7.17,92.6,9.43V20.37C92.6,22.63,94,24,97.29,24S102,22.63,102,20.37Z"/><path class="cls-1" d="M123.82,20.37H120v9h-6.52V.43h12c7,0,9.64,2.78,9.64,8.21v3.57c0,3.6-1.3,6-4.21,7.25l7,9.91H130.2Zm4.82-11.12c0-2.17-.83-3-3.48-3H120v8.52h5.16c2.78,0,3.48-1,3.48-3.18Z"/><path class="cls-1" d="M152.6,29.37H141.4V.43h11.2c7.12,0,9.77,3.61,9.77,7.52v13.9C162.37,25.72,159.72,29.37,152.6,29.37Zm3.26-19.64c0-2.26-.78-3.52-4-3.52h-3.91V23.59h3.91c3.26,0,4-1.26,4-3.52Z"/><path class="cls-1" d="M190.56,29.37h-6.77l-1.56-5.65h-9.69L171,29.37h-6.77L173,.43h8.69ZM174,18.29h6.64l-3.3-12.12Z"/><path class="cls-1" d="M83.91,68.9a24.89,24.89,0,0,1-8.59-1.52l.61-3A27.27,27.27,0,0,0,84,65.59c4.65,0,5.6-1.21,5.6-4.51,0-3.91,0-4.26-6-5.61-7-1.56-7.81-2.91-7.81-8.9,0-5,2.08-7.47,9.24-7.47a32.84,32.84,0,0,1,7.82.95l-.31,3.17a35.36,35.36,0,0,0-7.42-.82c-4.73,0-5.6,1-5.6,4.3,0,4,0,4.17,5.73,5.6,7.69,1.91,8.08,3,8.08,8.69C93.34,66,91.86,68.9,83.91,68.9Z"/><path class="cls-1" d="M104.31,42.88H95.67V39.53h21v3.35h-8.64V68.46h-3.74Z"/><path class="cls-1" d="M120.43,39.53h17v3.35H124.16V52h12.33V55.3H124.16v9.82h13.33v3.34H120.43Z"/><path class="cls-1" d="M147.61,65.12h12.55v3.34H143.88V39.53h3.73Z"/><path class="cls-1" d="M182.18,60.12c0,4.82-3,8.78-10.46,8.78s-10.47-4-10.47-8.78V47.87c0-4.82,3-8.77,10.47-8.77s10.46,3.95,10.46,8.77ZM165,60c0,3.57,2.17,5.56,6.73,5.56s6.73-2,6.73-5.56V48c0-3.56-2.18-5.56-6.73-5.56S165,44.4,165,48Z"/><polygon class="cls-1" points="0 43.83 30.37 0.43 50.62 29.36 40.49 43.83 30.37 29.36 20.25 43.83 0 43.83"/><polygon class="cls-1" points="52.06 68.46 72.31 39.53 52.06 39.53 40.49 56.06 30.36 41.6 20.24 56.06 28.92 68.46 52.06 68.46"/></g></g></svg>